# xmcd
#
# Track frame offsets: 
#        150
#        5896
#        35614
#        65312
#        89286
#        111559
#        123903
#        165458
#        189210
#        212098
#        243348
#
# Disc length: 3446 seconds
#
# Revision: 0
# Processed by: cddbd v1.5.1PL2 Copyright (c) Steve Scherf et al.
# Submitted via: ExactAudioCopy v0.95a5
#
DISCID=910d740b
DTITLE=James Harman Band - Strictly live in '85 ....Plus!
DYEAR=2005
DGENRE=Blues
TTITLE0=Introduction by John Juke Logan
TTITLE1=By-Yourself Dance
TTITLE2=Blues Walked In
TTITLE3=Poor Boy
TTITLE4=The Book of Mean
TTITLE5=Little Mixed Up
TTITLE6=You're Gone
TTITLE7=That's Not Your Baby
TTITLE8=Legs (Let the little girl dance)
TTITLE9=Goatman Holler
TTITLE10=Cornbread
EXTD=
EXTT0=
EXTT1=
EXTT2=
EXTT3=
EXTT4=
EXTT5=
EXTT6=
EXTT7=
EXTT8=
EXTT9=
EXTT10=
PLAYORDER=
